<svg width="143" height="58" viewBox="0 0 143 58" fill="none" xmlns="http://www.w3.org/2000/svg">
<g filter="url(#filter0_ii_1129_336)">
<path d="M5 53L22.8403 43.7974C29.8388 40.1873 38.1978 40.4087 44.9955 44.3842L48.2612 46.2941C55.3564 50.4435 64.1266 50.4913 71.2666 46.4194L73.9298 44.9006C81.3676 40.6588 90.642 40.9615 97.8469 45.5877V45.5877C104.909 50.122 113.974 50.5103 121.348 46.5039L137 38" stroke="#6BBFA4" stroke-width="10" stroke-linecap="round"/>
</g>
<g filter="url(#filter1_ii_1129_336)">
<path d="M6 20L23.8403 10.7974C30.8388 7.18731 39.1978 7.4087 45.9955 11.3842L49.2612 13.2941C56.3564 17.4435 65.1266 17.4913 72.2666 13.4194L74.9298 11.9006C82.3676 7.65881 91.642 7.96149 98.8469 12.5877V12.5877C105.909 17.122 114.974 17.5103 122.348 13.5039L138 5" stroke="#6BBFA4" stroke-width="10" stroke-linecap="round"/>
</g>
<defs>
<filter id="filter0_ii_1129_336" x="-1.00098" y="28.9991" width="144.002" height="33.002" filterUnits="userSpaceOnUse" color-interpolation-filters="sRGB">
<feFlood flood-opacity="0" result="BackgroundImageFix"/>
<feBlend mode="normal" in="SourceGraphic" in2="BackgroundImageFix" result="shape"/>
<feColorMatrix in="SourceAlpha" type="matrix" values="0 0 0 0 0 0 0 0 0 0 0 0 0 0 0 0 0 0 127 0" result="hardAlpha"/>
<feOffset dx="1" dy="4"/>
<feGaussianBlur stdDeviation="2"/>
<feComposite in2="hardAlpha" operator="arithmetic" k2="-1" k3="1"/>
<feColorMatrix type="matrix" values="0 0 0 0 1 0 0 0 0 1 0 0 0 0 1 0 0 0 0.5 0"/>
<feBlend mode="normal" in2="shape" result="effect1_innerShadow_1129_336"/>
<feColorMatrix in="SourceAlpha" type="matrix" values="0 0 0 0 0 0 0 0 0 0 0 0 0 0 0 0 0 0 127 0" result="hardAlpha"/>
<feOffset dx="-1" dy="-4"/>
<feGaussianBlur stdDeviation="3"/>
<feComposite in2="hardAlpha" operator="arithmetic" k2="-1" k3="1"/>
<feColorMatrix type="matrix" values="0 0 0 0 0 0 0 0 0 0 0 0 0 0 0 0 0 0 0.3 0"/>
<feBlend mode="normal" in2="effect1_innerShadow_1129_336" result="effect2_innerShadow_1129_336"/>
</filter>
<filter id="filter1_ii_1129_336" x="-0.000976562" y="-4.00095" width="144.002" height="33.002" filterUnits="userSpaceOnUse" color-interpolation-filters="sRGB">
<feFlood flood-opacity="0" result="BackgroundImageFix"/>
<feBlend mode="normal" in="SourceGraphic" in2="BackgroundImageFix" result="shape"/>
<feColorMatrix in="SourceAlpha" type="matrix" values="0 0 0 0 0 0 0 0 0 0 0 0 0 0 0 0 0 0 127 0" result="hardAlpha"/>
<feOffset dx="1" dy="4"/>
<feGaussianBlur stdDeviation="2"/>
<feComposite in2="hardAlpha" operator="arithmetic" k2="-1" k3="1"/>
<feColorMatrix type="matrix" values="0 0 0 0 1 0 0 0 0 1 0 0 0 0 1 0 0 0 0.5 0"/>
<feBlend mode="normal" in2="shape" result="effect1_innerShadow_1129_336"/>
<feColorMatrix in="SourceAlpha" type="matrix" values="0 0 0 0 0 0 0 0 0 0 0 0 0 0 0 0 0 0 127 0" result="hardAlpha"/>
<feOffset dx="-1" dy="-4"/>
<feGaussianBlur stdDeviation="3"/>
<feComposite in2="hardAlpha" operator="arithmetic" k2="-1" k3="1"/>
<feColorMatrix type="matrix" values="0 0 0 0 0 0 0 0 0 0 0 0 0 0 0 0 0 0 0.3 0"/>
<feBlend mode="normal" in2="effect1_innerShadow_1129_336" result="effect2_innerShadow_1129_336"/>
</filter>
</defs>
</svg>
