<svg width="137" height="137" viewBox="0 0 137 137" fill="none" xmlns="http://www.w3.org/2000/svg">
<g filter="url(#filter0_di_1001_348)">
<path d="M100.209 112.248C102.123 114.529 105.542 114.842 107.65 112.739C116.713 103.694 122.813 92.0465 125.051 79.3514C127.602 64.8801 124.973 49.9725 117.625 37.2471C110.277 24.5217 98.6803 14.7922 84.8716 9.76751C71.0629 4.7428 55.9253 4.7442 42.1175 9.77148C28.3097 14.7988 16.7148 24.5304 9.36927 37.2572C2.02371 49.984 -0.60273 64.892 1.95124 79.3628C4.50522 93.8336 12.0763 106.942 23.3347 116.385C33.2112 124.67 45.3714 129.669 58.1284 130.769C61.0949 131.025 63.5127 128.586 63.5121 125.609C63.5115 122.631 61.0906 120.247 58.1291 119.938C47.9113 118.871 38.1974 114.778 30.264 108.124C20.948 100.31 14.6831 89.463 12.5697 77.4887C10.4564 65.5144 12.6297 53.1784 18.708 42.6472C24.7863 32.1161 34.3808 24.0634 45.8064 19.9034C57.2321 15.7434 69.7581 15.7423 81.1845 19.9001C92.6109 24.058 102.207 32.1089 108.287 42.6389C114.367 53.1689 116.543 65.5046 114.432 77.4793C112.634 87.6766 107.826 97.0569 100.686 104.443C98.6162 106.584 98.2948 109.967 100.209 112.248Z" fill="#EAF4EC"/>
</g>
<g filter="url(#filter1_ii_1001_348)">
<path d="M6.3913 68.5C3.41377 68.5 0.975856 70.9182 1.23238 73.8846C1.78257 80.2469 3.30559 86.4982 5.75753 92.4177C8.89845 100.001 13.5022 106.891 19.3058 112.694C25.1095 118.498 31.9994 123.102 39.5823 126.242C45.5018 128.694 51.7531 130.217 58.1153 130.768C61.0818 131.024 63.5 128.586 63.5 125.609C63.5 122.631 61.0798 120.246 58.1184 119.937C53.1735 119.419 48.3194 118.191 43.7086 116.281C37.434 113.682 31.7327 109.872 26.9303 105.07C22.1279 100.267 18.3184 94.566 15.7193 88.2914C13.8095 83.6806 12.5807 78.8265 12.0633 73.8816C11.7535 70.9202 9.36883 68.5 6.3913 68.5Z" fill="#3D5AA5"/>
</g>
<g filter="url(#filter2_dii_1001_348)">
<path fill-rule="evenodd" clip-rule="evenodd" d="M41.3433 48.0481C41.3433 46.6921 41.8819 45.3916 42.8408 44.4327C43.7997 43.4738 45.1002 42.9352 46.4562 42.9352H74.431L85.6556 54.1598V88.9519C85.6556 90.3079 85.117 91.6084 84.1581 92.5673C83.1992 93.5261 81.8987 94.0648 80.5427 94.0648H46.4562C45.1002 94.0648 43.7997 93.5261 42.8408 92.5673C41.8819 91.6084 41.3433 90.3079 41.3433 88.9519V48.0481ZM61.7951 56.5697H51.5692V59.9784H61.7951V56.5697ZM75.4297 66.7957H51.5692V70.2043H75.4297V66.7957ZM59.4261 80.1166C58.049 80.4848 56.9719 81.5381 56.5969 82.6731L53.3587 81.596C54.1189 79.3224 56.1095 77.4784 58.5399 76.8239C60.9498 76.1763 63.7006 76.7216 66.0798 78.9066C66.7702 78.704 67.4816 78.5817 68.2 78.5419C70.0406 78.443 71.687 78.9066 73.1016 79.4963C74.1412 79.9292 75.1468 80.4746 75.999 80.9347C76.2648 81.0847 76.5205 81.221 76.7557 81.3438C77.8567 81.9232 78.46 82.1346 78.8384 82.1346V85.5432C77.509 85.5432 76.2001 84.9024 75.1707 84.3638C74.8604 84.2001 74.5514 84.0342 74.2435 83.8662C73.4473 83.4157 72.6281 83.0072 71.7893 82.6425C70.6508 82.1652 69.5293 81.8857 68.384 81.9471C68.213 81.9554 68.0424 81.9713 67.8727 81.9948L67.8762 82.0425C67.9682 83.1469 67.5114 84.057 66.9217 84.7115C65.8378 85.9182 64.0687 86.5522 62.7393 86.7908C62.0505 86.9289 61.3442 86.9577 60.6464 86.876C60.2507 86.8253 59.8686 86.698 59.5216 86.501C59.2518 86.3458 59.0194 86.1331 58.8409 85.878C58.6624 85.623 58.5422 85.3318 58.4887 85.0251C58.4049 84.4515 58.54 83.8675 58.8671 83.3889C59.1146 83.0253 59.4157 82.7013 59.7602 82.4277C60.4078 81.8926 61.3452 81.3131 62.603 80.6791L62.695 80.6109C62.2116 80.3108 61.6723 80.1122 61.1097 80.0272C60.5471 79.9423 59.9731 79.9727 59.4227 80.1166H59.4261Z" fill="#3D5AA5"/>
</g>
<defs>
<filter id="filter0_di_1001_348" x="-1" y="0" width="138" height="136.787" filterUnits="userSpaceOnUse" color-interpolation-filters="sRGB">
<feFlood flood-opacity="0" result="BackgroundImageFix"/>
<feColorMatrix in="SourceAlpha" type="matrix" values="0 0 0 0 0 0 0 0 0 0 0 0 0 0 0 0 0 0 127 0" result="hardAlpha"/>
<feOffset dx="5"/>
<feGaussianBlur stdDeviation="3"/>
<feComposite in2="hardAlpha" operator="out"/>
<feColorMatrix type="matrix" values="0 0 0 0 0 0 0 0 0 0 0 0 0 0 0 0 0 0 0.3 0"/>
<feBlend mode="normal" in2="BackgroundImageFix" result="effect1_dropShadow_1001_348"/>
<feBlend mode="normal" in="SourceGraphic" in2="effect1_dropShadow_1001_348" result="shape"/>
<feColorMatrix in="SourceAlpha" type="matrix" values="0 0 0 0 0 0 0 0 0 0 0 0 0 0 0 0 0 0 127 0" result="hardAlpha"/>
<feMorphology radius="1" operator="erode" in="SourceAlpha" result="effect2_innerShadow_1001_348"/>
<feOffset dx="-2" dy="-1"/>
<feGaussianBlur stdDeviation="1.5"/>
<feComposite in2="hardAlpha" operator="arithmetic" k2="-1" k3="1"/>
<feColorMatrix type="matrix" values="0 0 0 0 0 0 0 0 0 0 0 0 0 0 0 0 0 0 0.3 0"/>
<feBlend mode="normal" in2="shape" result="effect2_innerShadow_1001_348"/>
</filter>
<filter id="filter1_ii_1001_348" x="0.213867" y="65.5" width="63.2861" height="68.2862" filterUnits="userSpaceOnUse" color-interpolation-filters="sRGB">
<feFlood flood-opacity="0" result="BackgroundImageFix"/>
<feBlend mode="normal" in="SourceGraphic" in2="BackgroundImageFix" result="shape"/>
<feColorMatrix in="SourceAlpha" type="matrix" values="0 0 0 0 0 0 0 0 0 0 0 0 0 0 0 0 0 0 127 0" result="hardAlpha"/>
<feOffset dy="-4"/>
<feGaussianBlur stdDeviation="1.5"/>
<feComposite in2="hardAlpha" operator="arithmetic" k2="-1" k3="1"/>
<feColorMatrix type="matrix" values="0 0 0 0 0 0 0 0 0 0 0 0 0 0 0 0 0 0 0.3 0"/>
<feBlend mode="normal" in2="shape" result="effect1_innerShadow_1001_348"/>
<feColorMatrix in="SourceAlpha" type="matrix" values="0 0 0 0 0 0 0 0 0 0 0 0 0 0 0 0 0 0 127 0" result="hardAlpha"/>
<feOffset dx="-1" dy="4"/>
<feGaussianBlur stdDeviation="1.5"/>
<feComposite in2="hardAlpha" operator="arithmetic" k2="-1" k3="1"/>
<feColorMatrix type="matrix" values="0 0 0 0 1 0 0 0 0 1 0 0 0 0 1 0 0 0 0.3 0"/>
<feBlend mode="normal" in2="effect1_innerShadow_1001_348" result="effect2_innerShadow_1001_348"/>
</filter>
<filter id="filter2_dii_1001_348" x="40.3433" y="41.9352" width="50.3125" height="58.1297" filterUnits="userSpaceOnUse" color-interpolation-filters="sRGB">
<feFlood flood-opacity="0" result="BackgroundImageFix"/>
<feColorMatrix in="SourceAlpha" type="matrix" values="0 0 0 0 0 0 0 0 0 0 0 0 0 0 0 0 0 0 127 0" result="hardAlpha"/>
<feOffset dx="2" dy="3"/>
<feGaussianBlur stdDeviation="1.5"/>
<feComposite in2="hardAlpha" operator="out"/>
<feColorMatrix type="matrix" values="0 0 0 0 0 0 0 0 0 0 0 0 0 0 0 0 0 0 0.3 0"/>
<feBlend mode="normal" in2="BackgroundImageFix" result="effect1_dropShadow_1001_348"/>
<feBlend mode="normal" in="SourceGraphic" in2="effect1_dropShadow_1001_348" result="shape"/>
<feColorMatrix in="SourceAlpha" type="matrix" values="0 0 0 0 0 0 0 0 0 0 0 0 0 0 0 0 0 0 127 0" result="hardAlpha"/>
<feOffset dx="2" dy="2"/>
<feGaussianBlur stdDeviation="2.5"/>
<feComposite in2="hardAlpha" operator="arithmetic" k2="-1" k3="1"/>
<feColorMatrix type="matrix" values="0 0 0 0 1 0 0 0 0 1 0 0 0 0 1 0 0 0 0.4 0"/>
<feBlend mode="normal" in2="shape" result="effect2_innerShadow_1001_348"/>
<feColorMatrix in="SourceAlpha" type="matrix" values="0 0 0 0 0 0 0 0 0 0 0 0 0 0 0 0 0 0 127 0" result="hardAlpha"/>
<feOffset dx="-1" dy="-1"/>
<feGaussianBlur stdDeviation="1.5"/>
<feComposite in2="hardAlpha" operator="arithmetic" k2="-1" k3="1"/>
<feColorMatrix type="matrix" values="0 0 0 0 0 0 0 0 0 0 0 0 0 0 0 0 0 0 0.5 0"/>
<feBlend mode="normal" in2="effect2_innerShadow_1001_348" result="effect3_innerShadow_1001_348"/>
</filter>
</defs>
</svg>
