<svg width="137" height="137" viewBox="0 0 137 137" fill="none" xmlns="http://www.w3.org/2000/svg">
<g filter="url(#filter0_di_1001_350)">
<path d="M100.209 112.248C102.123 114.529 105.542 114.842 107.65 112.739C116.713 103.694 122.813 92.0465 125.051 79.3514C127.602 64.8801 124.973 49.9725 117.625 37.2471C110.277 24.5217 98.6803 14.7922 84.8716 9.76751C71.0629 4.7428 55.9253 4.7442 42.1175 9.77148C28.3097 14.7988 16.7148 24.5304 9.36927 37.2572C2.02371 49.984 -0.60273 64.892 1.95124 79.3628C4.50522 93.8336 12.0763 106.942 23.3347 116.385C33.2112 124.67 45.3714 129.669 58.1284 130.769C61.0949 131.025 63.5127 128.586 63.5121 125.609C63.5115 122.631 61.0906 120.247 58.1291 119.938C47.9113 118.871 38.1974 114.778 30.264 108.124C20.948 100.31 14.6831 89.463 12.5697 77.4887C10.4564 65.5144 12.6297 53.1784 18.708 42.6472C24.7863 32.1161 34.3808 24.0634 45.8064 19.9034C57.2321 15.7434 69.7581 15.7423 81.1845 19.9001C92.6109 24.058 102.207 32.1089 108.287 42.6389C114.367 53.1689 116.543 65.5046 114.432 77.4793C112.634 87.6766 107.826 97.0569 100.686 104.443C98.6162 106.584 98.2948 109.967 100.209 112.248Z" fill="#EAF4EC"/>
</g>
<g filter="url(#filter1_ii_1001_350)">
<path d="M6.3913 68.5C3.41377 68.5 0.975856 70.9182 1.23238 73.8846C1.78257 80.2469 3.30559 86.4982 5.75753 92.4177C8.89845 100.001 13.5022 106.891 19.3058 112.694C25.1095 118.498 31.9994 123.102 39.5823 126.242C45.5018 128.694 51.7531 130.217 58.1153 130.768C61.0818 131.024 63.5 128.586 63.5 125.609C63.5 122.631 61.0798 120.246 58.1184 119.937C53.1735 119.419 48.3194 118.191 43.7086 116.281C37.434 113.682 31.7327 109.872 26.9303 105.07C22.1279 100.267 18.3184 94.566 15.7193 88.2914C13.8095 83.6806 12.5807 78.8265 12.0633 73.8816C11.7535 70.9202 9.36883 68.5 6.3913 68.5Z" fill="#6BBFA4"/>
</g>
<g filter="url(#filter2_dii_1001_350)">
<path d="M74.6063 68.8307C74.6063 67.0767 74.4496 65.3744 74.2405 63.672H83.0732C83.4914 65.3228 83.7527 67.0509 83.7527 68.8307C83.7527 69.7851 83.6743 70.7136 83.5436 71.6164C85.3468 71.8744 87.0192 72.4418 88.561 73.2672C88.8224 71.8228 88.9792 70.3525 88.9792 68.8307C88.9792 54.6442 77.2196 43.037 62.8468 43.037C48.3955 43.037 36.7144 54.6442 36.7144 68.8307C36.7144 83.0172 48.4739 94.6244 62.8468 94.6244C64.3886 94.6244 65.8781 94.4696 67.3415 94.2117C66.1003 91.9648 65.4532 89.4454 65.46 86.8863C65.46 86.1382 65.5384 85.416 65.6429 84.6938C64.8067 86.3188 63.8921 87.8922 62.8468 89.3624C60.6778 86.2672 58.9269 82.8367 57.8555 79.1482H67.5767C69.1462 76.4562 71.5063 74.2977 74.345 72.9577C74.5018 71.5906 74.6063 70.2236 74.6063 68.8307ZM62.8468 48.2732C65.0157 51.3684 66.7666 54.8247 67.838 58.5132H57.8555C58.9269 54.8247 60.6778 51.3684 62.8468 48.2732ZM42.6203 73.9894C42.2022 72.3386 41.9408 70.6105 41.9408 68.8307C41.9408 67.0509 42.2022 65.3228 42.6203 63.672H51.453C51.244 65.3744 51.0872 67.0767 51.0872 68.8307C51.0872 70.5847 51.244 72.2871 51.453 73.9894H42.6203ZM44.7631 79.1482H52.3938C53.3084 82.3724 54.4844 85.4676 56.0523 88.3307C51.2926 86.71 47.2845 83.4498 44.7631 79.1482ZM52.3938 58.5132H44.7631C47.2689 54.1985 51.2826 50.9337 56.0523 49.3307C54.4844 52.1938 53.3084 55.289 52.3938 58.5132ZM68.9617 73.9894H56.7318C56.4705 72.2871 56.3137 70.5847 56.3137 68.8307C56.3137 67.0767 56.4705 65.3486 56.7318 63.672H68.9617C69.1969 65.3486 69.3799 67.0767 69.3799 68.8307C69.3799 70.5847 69.1969 72.2871 68.9617 73.9894ZM69.6151 49.3307C74.4234 50.9557 78.4217 54.2315 80.9304 58.5132H73.2213C72.4034 55.3186 71.1923 52.2348 69.6151 49.3307ZM90.2858 82.3724L77.8729 94.6244L70.6865 86.8863L73.7178 83.8942L77.8729 87.9954L87.2544 78.7355L90.2858 82.3724Z" fill="#6BBFA4"/>
</g>
<defs>
<filter id="filter0_di_1001_350" x="-1.00024" y="0" width="138" height="136.787" filterUnits="userSpaceOnUse" color-interpolation-filters="sRGB">
<feFlood flood-opacity="0" result="BackgroundImageFix"/>
<feColorMatrix in="SourceAlpha" type="matrix" values="0 0 0 0 0 0 0 0 0 0 0 0 0 0 0 0 0 0 127 0" result="hardAlpha"/>
<feOffset dx="5"/>
<feGaussianBlur stdDeviation="3"/>
<feComposite in2="hardAlpha" operator="out"/>
<feColorMatrix type="matrix" values="0 0 0 0 0 0 0 0 0 0 0 0 0 0 0 0 0 0 0.3 0"/>
<feBlend mode="normal" in2="BackgroundImageFix" result="effect1_dropShadow_1001_350"/>
<feBlend mode="normal" in="SourceGraphic" in2="effect1_dropShadow_1001_350" result="shape"/>
<feColorMatrix in="SourceAlpha" type="matrix" values="0 0 0 0 0 0 0 0 0 0 0 0 0 0 0 0 0 0 127 0" result="hardAlpha"/>
<feMorphology radius="1" operator="erode" in="SourceAlpha" result="effect2_innerShadow_1001_350"/>
<feOffset dx="-2" dy="-1"/>
<feGaussianBlur stdDeviation="1.5"/>
<feComposite in2="hardAlpha" operator="arithmetic" k2="-1" k3="1"/>
<feColorMatrix type="matrix" values="0 0 0 0 0 0 0 0 0 0 0 0 0 0 0 0 0 0 0.3 0"/>
<feBlend mode="normal" in2="shape" result="effect2_innerShadow_1001_350"/>
</filter>
<filter id="filter1_ii_1001_350" x="0.213867" y="65.5" width="63.2861" height="68.2862" filterUnits="userSpaceOnUse" color-interpolation-filters="sRGB">
<feFlood flood-opacity="0" result="BackgroundImageFix"/>
<feBlend mode="normal" in="SourceGraphic" in2="BackgroundImageFix" result="shape"/>
<feColorMatrix in="SourceAlpha" type="matrix" values="0 0 0 0 0 0 0 0 0 0 0 0 0 0 0 0 0 0 127 0" result="hardAlpha"/>
<feOffset dy="-4"/>
<feGaussianBlur stdDeviation="1.5"/>
<feComposite in2="hardAlpha" operator="arithmetic" k2="-1" k3="1"/>
<feColorMatrix type="matrix" values="0 0 0 0 0 0 0 0 0 0 0 0 0 0 0 0 0 0 0.3 0"/>
<feBlend mode="normal" in2="shape" result="effect1_innerShadow_1001_350"/>
<feColorMatrix in="SourceAlpha" type="matrix" values="0 0 0 0 0 0 0 0 0 0 0 0 0 0 0 0 0 0 127 0" result="hardAlpha"/>
<feOffset dx="-1" dy="4"/>
<feGaussianBlur stdDeviation="1.5"/>
<feComposite in2="hardAlpha" operator="arithmetic" k2="-1" k3="1"/>
<feColorMatrix type="matrix" values="0 0 0 0 1 0 0 0 0 1 0 0 0 0 1 0 0 0 0.4 0"/>
<feBlend mode="normal" in2="effect1_innerShadow_1001_350" result="effect2_innerShadow_1001_350"/>
</filter>
<filter id="filter2_dii_1001_350" x="35.7144" y="42.037" width="59.5715" height="58.5873" filterUnits="userSpaceOnUse" color-interpolation-filters="sRGB">
<feFlood flood-opacity="0" result="BackgroundImageFix"/>
<feColorMatrix in="SourceAlpha" type="matrix" values="0 0 0 0 0 0 0 0 0 0 0 0 0 0 0 0 0 0 127 0" result="hardAlpha"/>
<feOffset dx="2" dy="3"/>
<feGaussianBlur stdDeviation="1.5"/>
<feComposite in2="hardAlpha" operator="out"/>
<feColorMatrix type="matrix" values="0 0 0 0 0 0 0 0 0 0 0 0 0 0 0 0 0 0 0.3 0"/>
<feBlend mode="normal" in2="BackgroundImageFix" result="effect1_dropShadow_1001_350"/>
<feBlend mode="normal" in="SourceGraphic" in2="effect1_dropShadow_1001_350" result="shape"/>
<feColorMatrix in="SourceAlpha" type="matrix" values="0 0 0 0 0 0 0 0 0 0 0 0 0 0 0 0 0 0 127 0" result="hardAlpha"/>
<feOffset dx="2" dy="2"/>
<feGaussianBlur stdDeviation="2.5"/>
<feComposite in2="hardAlpha" operator="arithmetic" k2="-1" k3="1"/>
<feColorMatrix type="matrix" values="0 0 0 0 1 0 0 0 0 1 0 0 0 0 1 0 0 0 0.4 0"/>
<feBlend mode="normal" in2="shape" result="effect2_innerShadow_1001_350"/>
<feColorMatrix in="SourceAlpha" type="matrix" values="0 0 0 0 0 0 0 0 0 0 0 0 0 0 0 0 0 0 127 0" result="hardAlpha"/>
<feOffset dx="-1" dy="-1"/>
<feGaussianBlur stdDeviation="1.5"/>
<feComposite in2="hardAlpha" operator="arithmetic" k2="-1" k3="1"/>
<feColorMatrix type="matrix" values="0 0 0 0 0 0 0 0 0 0 0 0 0 0 0 0 0 0 0.5 0"/>
<feBlend mode="normal" in2="effect2_innerShadow_1001_350" result="effect3_innerShadow_1001_350"/>
</filter>
</defs>
</svg>
