<svg width="137" height="137" viewBox="0 0 137 137" fill="none" xmlns="http://www.w3.org/2000/svg">
<g filter="url(#filter0_di_1001_349)">
<path d="M100.209 112.248C102.123 114.529 105.542 114.842 107.65 112.739C116.713 103.694 122.813 92.0465 125.051 79.3514C127.602 64.8801 124.973 49.9725 117.625 37.2471C110.277 24.5217 98.6803 14.7922 84.8716 9.76751C71.0629 4.7428 55.9253 4.7442 42.1175 9.77148C28.3097 14.7988 16.7148 24.5304 9.36927 37.2572C2.02371 49.984 -0.60273 64.892 1.95124 79.3628C4.50522 93.8336 12.0763 106.942 23.3347 116.385C33.2112 124.67 45.3714 129.669 58.1284 130.769C61.0949 131.025 63.5127 128.586 63.5121 125.609C63.5115 122.631 61.0906 120.247 58.1291 119.938C47.9113 118.871 38.1974 114.778 30.264 108.124C20.948 100.31 14.6831 89.463 12.5697 77.4887C10.4564 65.5144 12.6297 53.1784 18.708 42.6472C24.7863 32.1161 34.3808 24.0634 45.8064 19.9034C57.2321 15.7434 69.7581 15.7423 81.1845 19.9001C92.6109 24.058 102.207 32.1089 108.287 42.6389C114.367 53.1689 116.543 65.5046 114.432 77.4793C112.634 87.6766 107.826 97.0569 100.686 104.443C98.6162 106.584 98.2948 109.967 100.209 112.248Z" fill="#EAF4EC"/>
</g>
<g filter="url(#filter1_ii_1001_349)">
<path d="M6.3913 68.5C3.41377 68.5 0.975856 70.9182 1.23238 73.8846C1.78257 80.2469 3.30559 86.4982 5.75753 92.4177C8.89845 100.001 13.5022 106.891 19.3058 112.694C25.1095 118.498 31.9994 123.102 39.5823 126.242C45.5018 128.694 51.7531 130.217 58.1153 130.768C61.0818 131.024 63.5 128.586 63.5 125.609C63.5 122.631 61.0798 120.246 58.1184 119.937C53.1735 119.419 48.3194 118.191 43.7086 116.281C37.434 113.682 31.7327 109.872 26.9303 105.07C22.1279 100.267 18.3184 94.566 15.7193 88.2914C13.8095 83.6806 12.5807 78.8265 12.0633 73.8816C11.7535 70.9202 9.36883 68.5 6.3913 68.5Z" fill="#EAF4EC"/>
</g>
<g filter="url(#filter2_dii_1001_349)">
<path d="M89.8724 49.5681C89.8666 47.6387 89.1101 45.7873 87.763 44.406C86.4158 43.0247 84.584 42.2219 82.6553 42.1678C80.7266 42.1136 78.8526 42.8123 77.4301 44.1158C76.0076 45.4194 75.1483 47.2254 75.0343 49.1515L51.9 53.7776C51.3591 52.6534 50.5435 51.6836 49.5287 50.958C48.5138 50.2324 47.3324 49.7743 46.0937 49.6261C44.8549 49.4779 43.5988 49.6443 42.4414 50.11C41.2841 50.5757 40.2627 51.3256 39.4719 52.2905C38.681 53.2554 38.1461 54.404 37.9167 55.6303C37.6872 56.8566 37.7706 58.121 38.159 59.3065C38.5475 60.492 39.2286 61.5605 40.1393 62.4132C41.05 63.2659 42.1609 63.8752 43.3694 64.1849V79.5942C42.1008 79.9198 40.9409 80.5753 40.0075 81.4941C39.0741 82.4129 38.4004 83.5623 38.0547 84.8257C37.7091 86.089 37.7038 87.4213 38.0395 88.6873C38.3752 89.9533 39.0398 91.108 39.9659 92.0341C40.8921 92.9603 42.0468 93.6249 43.3128 93.9606C44.5788 94.2962 45.9111 94.291 47.1744 93.9453C48.4377 93.5997 49.5871 92.926 50.5059 91.9926C51.4247 91.0591 52.0802 89.8993 52.4059 88.6306H67.8151C68.1244 89.84 68.7335 90.9518 69.5863 91.8633C70.439 92.7748 71.5078 93.4566 72.6939 93.8456C73.88 94.2346 75.145 94.3183 76.3719 94.0888C77.5989 93.8594 78.7482 93.3243 79.7135 92.5331C80.6789 91.7418 81.4292 90.7199 81.895 89.5618C82.3608 88.4038 82.527 87.1469 82.3784 85.9076C82.2298 84.6683 81.771 83.4864 81.0446 82.4713C80.3182 81.4562 79.3476 80.6407 78.2225 80.1001L82.8486 56.9658C84.7424 56.8623 86.5249 56.0384 87.8308 54.663C89.1368 53.2876 89.8672 51.4648 89.8724 49.5681ZM82.4319 45.8479C83.1677 45.8479 83.887 46.0661 84.4988 46.4749C85.1106 46.8837 85.5874 47.4647 85.869 48.1445C86.1506 48.8242 86.2243 49.5723 86.0807 50.2939C85.9372 51.0156 85.5828 51.6785 85.0626 52.1987C84.5423 52.719 83.8794 53.0733 83.1577 53.2169C82.4361 53.3604 81.6881 53.2868 81.0083 53.0052C80.3285 52.7236 79.7475 52.2468 79.3387 51.635C78.9299 51.0232 78.7117 50.3039 78.7117 49.5681C78.7127 48.5818 79.105 47.6361 79.8024 46.9386C80.4999 46.2412 81.4456 45.8489 82.4319 45.8479ZM41.5093 57.0086C41.5093 56.2728 41.7275 55.5535 42.1363 54.9418C42.5451 54.33 43.1261 53.8531 43.8059 53.5716C44.4857 53.29 45.2337 53.2163 45.9553 53.3599C46.677 53.5034 47.3399 53.8577 47.8602 54.378C48.3805 54.8983 48.7348 55.5612 48.8783 56.2828C49.0219 57.0045 48.9482 57.7525 48.6666 58.4323C48.385 59.1121 47.9082 59.6931 47.2964 60.1019C46.6846 60.5107 45.9654 60.7288 45.2296 60.7288C44.2432 60.7279 43.2975 60.3356 42.6 59.6381C41.9026 58.9407 41.5103 57.995 41.5093 57.0086ZM45.2296 90.4908C44.4938 90.4908 43.7745 90.2726 43.1627 89.8638C42.5509 89.455 42.0741 88.874 41.7925 88.1942C41.5109 87.5144 41.4373 86.7664 41.5808 86.0447C41.7244 85.3231 42.0787 84.6602 42.599 84.1399C43.1192 83.6196 43.7821 83.2653 44.5038 83.1218C45.2254 82.9782 45.9735 83.0519 46.6532 83.3335C47.333 83.615 47.914 84.0919 48.3228 84.7037C48.7316 85.3154 48.9498 86.0347 48.9498 86.7705C48.9488 87.7569 48.5566 88.7026 47.8591 89.4C47.1616 90.0975 46.2159 90.4898 45.2296 90.4908ZM67.8151 84.9104H52.4059C52.0727 83.6315 51.4044 82.4647 50.4699 81.5302C49.5354 80.5957 48.3686 79.9274 47.0897 79.5942V64.1849C48.6095 63.7896 49.9646 62.9221 50.9598 61.7073C51.9549 60.4925 52.5388 58.9932 52.6273 57.4253L75.7616 52.7992C76.4906 54.2988 77.7017 55.5105 79.2009 56.2404L74.5748 79.3728C73.0069 79.4613 71.5076 80.0452 70.2928 81.0403C69.078 82.0355 68.2105 83.3906 67.8151 84.9104ZM74.9915 90.4908C74.2557 90.4908 73.5364 90.2726 72.9246 89.8638C72.3128 89.455 71.836 88.874 71.5544 88.1942C71.2728 87.5144 71.1992 86.7664 71.3427 86.0447C71.4863 85.3231 71.8406 84.6602 72.3609 84.1399C72.8812 83.6196 73.544 83.2653 74.2657 83.1218C74.9873 82.9782 75.7354 83.0519 76.4151 83.3335C77.0949 83.615 77.676 84.0919 78.0847 84.7037C78.4935 85.3154 78.7117 86.0347 78.7117 86.7705C78.7107 87.7569 78.3185 88.7026 77.621 89.4C76.9235 90.0975 75.9778 90.4898 74.9915 90.4908Z" fill="#EAF4EC"/>
</g>
<defs>
<filter id="filter0_di_1001_349" x="-1" y="0" width="138" height="136.787" filterUnits="userSpaceOnUse" color-interpolation-filters="sRGB">
<feFlood flood-opacity="0" result="BackgroundImageFix"/>
<feColorMatrix in="SourceAlpha" type="matrix" values="0 0 0 0 0 0 0 0 0 0 0 0 0 0 0 0 0 0 127 0" result="hardAlpha"/>
<feOffset dx="5"/>
<feGaussianBlur stdDeviation="3"/>
<feComposite in2="hardAlpha" operator="out"/>
<feColorMatrix type="matrix" values="0 0 0 0 0 0 0 0 0 0 0 0 0 0 0 0 0 0 0.3 0"/>
<feBlend mode="normal" in2="BackgroundImageFix" result="effect1_dropShadow_1001_349"/>
<feBlend mode="normal" in="SourceGraphic" in2="effect1_dropShadow_1001_349" result="shape"/>
<feColorMatrix in="SourceAlpha" type="matrix" values="0 0 0 0 0 0 0 0 0 0 0 0 0 0 0 0 0 0 127 0" result="hardAlpha"/>
<feMorphology radius="1" operator="erode" in="SourceAlpha" result="effect2_innerShadow_1001_349"/>
<feOffset dx="-2" dy="-1"/>
<feGaussianBlur stdDeviation="1.5"/>
<feComposite in2="hardAlpha" operator="arithmetic" k2="-1" k3="1"/>
<feColorMatrix type="matrix" values="0 0 0 0 0 0 0 0 0 0 0 0 0 0 0 0 0 0 0.3 0"/>
<feBlend mode="normal" in2="shape" result="effect2_innerShadow_1001_349"/>
</filter>
<filter id="filter1_ii_1001_349" x="0.213867" y="65.5" width="63.2861" height="68.2862" filterUnits="userSpaceOnUse" color-interpolation-filters="sRGB">
<feFlood flood-opacity="0" result="BackgroundImageFix"/>
<feBlend mode="normal" in="SourceGraphic" in2="BackgroundImageFix" result="shape"/>
<feColorMatrix in="SourceAlpha" type="matrix" values="0 0 0 0 0 0 0 0 0 0 0 0 0 0 0 0 0 0 127 0" result="hardAlpha"/>
<feOffset dy="-4"/>
<feGaussianBlur stdDeviation="1.5"/>
<feComposite in2="hardAlpha" operator="arithmetic" k2="-1" k3="1"/>
<feColorMatrix type="matrix" values="0 0 0 0 0 0 0 0 0 0 0 0 0 0 0 0 0 0 0.3 0"/>
<feBlend mode="normal" in2="shape" result="effect1_innerShadow_1001_349"/>
<feColorMatrix in="SourceAlpha" type="matrix" values="0 0 0 0 0 0 0 0 0 0 0 0 0 0 0 0 0 0 127 0" result="hardAlpha"/>
<feOffset dx="-1" dy="4"/>
<feGaussianBlur stdDeviation="1.5"/>
<feComposite in2="hardAlpha" operator="arithmetic" k2="-1" k3="1"/>
<feColorMatrix type="matrix" values="0 0 0 0 1 0 0 0 0 1 0 0 0 0 1 0 0 0 0.9 0"/>
<feBlend mode="normal" in2="effect1_innerShadow_1001_349" result="effect2_innerShadow_1001_349"/>
</filter>
<filter id="filter2_dii_1001_349" x="36.79" y="41.1649" width="58.0825" height="59.0504" filterUnits="userSpaceOnUse" color-interpolation-filters="sRGB">
<feFlood flood-opacity="0" result="BackgroundImageFix"/>
<feColorMatrix in="SourceAlpha" type="matrix" values="0 0 0 0 0 0 0 0 0 0 0 0 0 0 0 0 0 0 127 0" result="hardAlpha"/>
<feOffset dx="2" dy="3"/>
<feGaussianBlur stdDeviation="1.5"/>
<feComposite in2="hardAlpha" operator="out"/>
<feColorMatrix type="matrix" values="0 0 0 0 0 0 0 0 0 0 0 0 0 0 0 0 0 0 0.3 0"/>
<feBlend mode="normal" in2="BackgroundImageFix" result="effect1_dropShadow_1001_349"/>
<feBlend mode="normal" in="SourceGraphic" in2="effect1_dropShadow_1001_349" result="shape"/>
<feColorMatrix in="SourceAlpha" type="matrix" values="0 0 0 0 0 0 0 0 0 0 0 0 0 0 0 0 0 0 127 0" result="hardAlpha"/>
<feOffset dx="2" dy="2"/>
<feGaussianBlur stdDeviation="2.5"/>
<feComposite in2="hardAlpha" operator="arithmetic" k2="-1" k3="1"/>
<feColorMatrix type="matrix" values="0 0 0 0 1 0 0 0 0 1 0 0 0 0 1 0 0 0 0.4 0"/>
<feBlend mode="normal" in2="shape" result="effect2_innerShadow_1001_349"/>
<feColorMatrix in="SourceAlpha" type="matrix" values="0 0 0 0 0 0 0 0 0 0 0 0 0 0 0 0 0 0 127 0" result="hardAlpha"/>
<feOffset dx="-1" dy="-1"/>
<feGaussianBlur stdDeviation="1.5"/>
<feComposite in2="hardAlpha" operator="arithmetic" k2="-1" k3="1"/>
<feColorMatrix type="matrix" values="0 0 0 0 0 0 0 0 0 0 0 0 0 0 0 0 0 0 0.5 0"/>
<feBlend mode="normal" in2="effect2_innerShadow_1001_349" result="effect3_innerShadow_1001_349"/>
</filter>
</defs>
</svg>
