<svg width="137" height="137" viewBox="0 0 137 137" fill="none" xmlns="http://www.w3.org/2000/svg">
<g filter="url(#filter0_di_1001_347)">
<path d="M100.209 112.248C102.123 114.529 105.542 114.842 107.65 112.739C116.713 103.694 122.813 92.0465 125.051 79.3514C127.602 64.8801 124.973 49.9725 117.625 37.2471C110.277 24.5217 98.6803 14.7922 84.8716 9.76751C71.0629 4.7428 55.9253 4.7442 42.1175 9.77148C28.3097 14.7988 16.7148 24.5304 9.36927 37.2572C2.02371 49.984 -0.60273 64.892 1.95124 79.3628C4.50522 93.8336 12.0763 106.942 23.3347 116.385C33.2112 124.67 45.3714 129.669 58.1284 130.769C61.0949 131.025 63.5127 128.586 63.5121 125.609C63.5115 122.631 61.0906 120.247 58.1291 119.938C47.9113 118.871 38.1974 114.778 30.264 108.124C20.948 100.31 14.6831 89.463 12.5697 77.4887C10.4564 65.5144 12.6297 53.1784 18.708 42.6472C24.7863 32.1161 34.3808 24.0634 45.8064 19.9034C57.2321 15.7434 69.7581 15.7423 81.1845 19.9001C92.6109 24.058 102.207 32.1089 108.287 42.6389C114.367 53.1689 116.543 65.5046 114.432 77.4793C112.634 87.6766 107.826 97.0569 100.686 104.443C98.6162 106.584 98.2948 109.967 100.209 112.248Z" fill="#EAF4EC"/>
</g>
<g filter="url(#filter1_ii_1001_347)">
<path d="M6.3913 68.5C3.41377 68.5 0.975856 70.9182 1.23238 73.8846C1.78257 80.2469 3.30559 86.4982 5.75753 92.4177C8.89845 100.001 13.5022 106.891 19.3058 112.694C25.1095 118.498 31.9994 123.102 39.5823 126.242C45.5018 128.694 51.7531 130.217 58.1153 130.768C61.0818 131.024 63.5 128.586 63.5 125.609C63.5 122.631 61.0798 120.246 58.1184 119.937C53.1735 119.419 48.3194 118.191 43.7086 116.281C37.434 113.682 31.7327 109.872 26.9303 105.07C22.1279 100.267 18.3184 94.566 15.7193 88.2914C13.8095 83.6806 12.5807 78.8265 12.0633 73.8816C11.7535 70.9202 9.36883 68.5 6.3913 68.5Z" fill="#EA4D4E"/>
</g>
<g filter="url(#filter2_dii_1001_347)">
<path fill-rule="evenodd" clip-rule="evenodd" d="M56.149 44.4425C45.446 44.4425 36.7693 53.1192 36.7693 63.8222C36.7693 87.8797 68.846 92.5576 68.846 92.5576V83.2018H70.8508C81.5537 83.2018 90.2305 74.5251 90.2305 63.8222C90.2305 53.1192 81.5537 44.4425 70.8508 44.4425H56.149ZM63.4999 67.8317C64.3861 67.8317 65.2359 67.4797 65.8626 66.8531C66.4892 66.2265 66.8412 65.3766 66.8412 64.4904C66.8412 63.6042 66.4892 62.7544 65.8626 62.1278C65.2359 61.5011 64.3861 61.1491 63.4999 61.1491C62.6137 61.1491 61.7638 61.5011 61.1372 62.1278C60.5106 62.7544 60.1586 63.6042 60.1586 64.4904C60.1586 65.3766 60.5106 66.2265 61.1372 66.8531C61.7638 67.4797 62.6137 67.8317 63.4999 67.8317ZM77.5335 64.4904C77.5335 65.3766 77.1814 66.2265 76.5548 66.8531C75.9282 67.4797 75.0783 67.8317 74.1921 67.8317C73.306 67.8317 72.4561 67.4797 71.8295 66.8531C71.2028 66.2265 70.8508 65.3766 70.8508 64.4904C70.8508 63.6042 71.2028 62.7544 71.8295 62.1278C72.4561 61.5011 73.306 61.1491 74.1921 61.1491C75.0783 61.1491 75.9282 61.5011 76.5548 62.1278C77.1814 62.7544 77.5335 63.6042 77.5335 64.4904ZM52.8076 67.8317C53.6938 67.8317 54.5437 67.4797 55.1703 66.8531C55.7969 66.2265 56.149 65.3766 56.149 64.4904C56.149 63.6042 55.7969 62.7544 55.1703 62.1278C54.5437 61.5011 53.6938 61.1491 52.8076 61.1491C51.9215 61.1491 51.0716 61.5011 50.445 62.1278C49.8184 62.7544 49.4663 63.6042 49.4663 64.4904C49.4663 65.3766 49.8184 66.2265 50.445 66.8531C51.0716 67.4797 51.9215 67.8317 52.8076 67.8317Z" fill="#EA4D4E"/>
</g>
<defs>
<filter id="filter0_di_1001_347" x="-1.00024" y="0" width="138" height="136.787" filterUnits="userSpaceOnUse" color-interpolation-filters="sRGB">
<feFlood flood-opacity="0" result="BackgroundImageFix"/>
<feColorMatrix in="SourceAlpha" type="matrix" values="0 0 0 0 0 0 0 0 0 0 0 0 0 0 0 0 0 0 127 0" result="hardAlpha"/>
<feOffset dx="5"/>
<feGaussianBlur stdDeviation="3"/>
<feComposite in2="hardAlpha" operator="out"/>
<feColorMatrix type="matrix" values="0 0 0 0 0 0 0 0 0 0 0 0 0 0 0 0 0 0 0.3 0"/>
<feBlend mode="normal" in2="BackgroundImageFix" result="effect1_dropShadow_1001_347"/>
<feBlend mode="normal" in="SourceGraphic" in2="effect1_dropShadow_1001_347" result="shape"/>
<feColorMatrix in="SourceAlpha" type="matrix" values="0 0 0 0 0 0 0 0 0 0 0 0 0 0 0 0 0 0 127 0" result="hardAlpha"/>
<feMorphology radius="1" operator="erode" in="SourceAlpha" result="effect2_innerShadow_1001_347"/>
<feOffset dx="-2" dy="-1"/>
<feGaussianBlur stdDeviation="1.5"/>
<feComposite in2="hardAlpha" operator="arithmetic" k2="-1" k3="1"/>
<feColorMatrix type="matrix" values="0 0 0 0 0 0 0 0 0 0 0 0 0 0 0 0 0 0 0.3 0"/>
<feBlend mode="normal" in2="shape" result="effect2_innerShadow_1001_347"/>
</filter>
<filter id="filter1_ii_1001_347" x="0.213867" y="65.5" width="63.2861" height="68.2862" filterUnits="userSpaceOnUse" color-interpolation-filters="sRGB">
<feFlood flood-opacity="0" result="BackgroundImageFix"/>
<feBlend mode="normal" in="SourceGraphic" in2="BackgroundImageFix" result="shape"/>
<feColorMatrix in="SourceAlpha" type="matrix" values="0 0 0 0 0 0 0 0 0 0 0 0 0 0 0 0 0 0 127 0" result="hardAlpha"/>
<feOffset dy="-4"/>
<feGaussianBlur stdDeviation="1.5"/>
<feComposite in2="hardAlpha" operator="arithmetic" k2="-1" k3="1"/>
<feColorMatrix type="matrix" values="0 0 0 0 0 0 0 0 0 0 0 0 0 0 0 0 0 0 0.3 0"/>
<feBlend mode="normal" in2="shape" result="effect1_innerShadow_1001_347"/>
<feColorMatrix in="SourceAlpha" type="matrix" values="0 0 0 0 0 0 0 0 0 0 0 0 0 0 0 0 0 0 127 0" result="hardAlpha"/>
<feOffset dx="-1" dy="4"/>
<feGaussianBlur stdDeviation="1.5"/>
<feComposite in2="hardAlpha" operator="arithmetic" k2="-1" k3="1"/>
<feColorMatrix type="matrix" values="0 0 0 0 1 0 0 0 0 1 0 0 0 0 1 0 0 0 0.3 0"/>
<feBlend mode="normal" in2="effect1_innerShadow_1001_347" result="effect2_innerShadow_1001_347"/>
</filter>
<filter id="filter2_dii_1001_347" x="35.7693" y="43.4425" width="59.4612" height="55.1151" filterUnits="userSpaceOnUse" color-interpolation-filters="sRGB">
<feFlood flood-opacity="0" result="BackgroundImageFix"/>
<feColorMatrix in="SourceAlpha" type="matrix" values="0 0 0 0 0 0 0 0 0 0 0 0 0 0 0 0 0 0 127 0" result="hardAlpha"/>
<feOffset dx="2" dy="3"/>
<feGaussianBlur stdDeviation="1.5"/>
<feComposite in2="hardAlpha" operator="out"/>
<feColorMatrix type="matrix" values="0 0 0 0 0 0 0 0 0 0 0 0 0 0 0 0 0 0 0.3 0"/>
<feBlend mode="normal" in2="BackgroundImageFix" result="effect1_dropShadow_1001_347"/>
<feBlend mode="normal" in="SourceGraphic" in2="effect1_dropShadow_1001_347" result="shape"/>
<feColorMatrix in="SourceAlpha" type="matrix" values="0 0 0 0 0 0 0 0 0 0 0 0 0 0 0 0 0 0 127 0" result="hardAlpha"/>
<feOffset dx="2" dy="2"/>
<feGaussianBlur stdDeviation="2.5"/>
<feComposite in2="hardAlpha" operator="arithmetic" k2="-1" k3="1"/>
<feColorMatrix type="matrix" values="0 0 0 0 1 0 0 0 0 1 0 0 0 0 1 0 0 0 0.4 0"/>
<feBlend mode="normal" in2="shape" result="effect2_innerShadow_1001_347"/>
<feColorMatrix in="SourceAlpha" type="matrix" values="0 0 0 0 0 0 0 0 0 0 0 0 0 0 0 0 0 0 127 0" result="hardAlpha"/>
<feOffset dx="-1" dy="-1"/>
<feGaussianBlur stdDeviation="1.5"/>
<feComposite in2="hardAlpha" operator="arithmetic" k2="-1" k3="1"/>
<feColorMatrix type="matrix" values="0 0 0 0 0 0 0 0 0 0 0 0 0 0 0 0 0 0 0.5 0"/>
<feBlend mode="normal" in2="effect2_innerShadow_1001_347" result="effect3_innerShadow_1001_347"/>
</filter>
</defs>
</svg>
